<?xml version="1.0" standalone="no"?>
<!DOCTYPE svg PUBLIC "-//W3C//DTD SVG 20010904//EN"
 "http://www.w3.org/TR/2001/REC-SVG-20010904/DTD/svg10.dtd">
<svg version="1.0" xmlns="http://www.w3.org/2000/svg"
 width="700.000000pt" height="700.000000pt" viewBox="0 0 700.000000 700.000000"
 preserveAspectRatio="xMidYMid meet">
<metadata>
Created by potrace 1.14, written by Peter Selinger 2001-2017
</metadata>
<g transform="translate(0.000000,700.000000) scale(0.100000,-0.100000)"
fill="#000000" stroke="none">
<path d="M4529 6996 c-2 -2 -47 -6 -99 -10 -114 -7 -172 -13 -265 -27 -109
-16 -127 -19 -175 -30 -474 -102 -785 -270 -1052 -568 -26 -29 -51 -59 -56
-67 -7 -13 -18 -11 -78 11 -38 14 -73 27 -79 28 -5 2 -14 5 -20 9 -30 17 -309
81 -415 93 -25 3 -54 8 -65 10 -116 23 -617 24 -734 0 -14 -2 -45 -7 -70 -10
-25 -3 -56 -7 -69 -10 -12 -3 -32 -7 -45 -10 -188 -39 -391 -123 -545 -227
-186 -125 -365 -353 -462 -588 -27 -66 -80 -240 -94 -311 -2 -13 -11 -55 -19
-94 -18 -80 -34 -196 -43 -293 -3 -37 -7 -73 -9 -79 -3 -8 5 -13 20 -14 14 -1
28 -2 33 -3 4 -1 39 -6 77 -10 39 -5 79 -10 90 -12 11 -2 43 -7 70 -10 28 -3
59 -7 70 -9 11 -1 47 -6 80 -10 60 -6 73 -8 150 -19 22 -3 58 -8 80 -10 87
-11 211 -27 237 -32 15 -2 49 -6 75 -9 27 -3 64 -7 83 -9 19 -3 59 -8 88 -11
l52 -7 1 39 c1 40 2 51 13 153 12 107 22 178 36 250 6 30 13 64 14 75 7 46 49
151 80 199 91 142 225 206 422 200 97 -3 151 -15 221 -52 134 -68 239 -249
247 -427 8 -198 -46 -393 -147 -530 -42 -56 -225 -236 -327 -321 -85 -70 -129
-105 -565 -434 -126 -95 -242 -183 -256 -194 -14 -12 -41 -32 -59 -46 -291
-215 -668 -621 -806 -868 -154 -273 -215 -533 -209 -882 2 -91 6 -176 8 -190
22 -121 33 -167 59 -245 98 -291 307 -554 583 -732 200 -129 504 -242 725
-268 30 -3 62 -8 70 -10 83 -22 500 -22 692 0 196 22 427 71 533 115 11 4 52
20 90 36 39 15 98 43 133 62 l63 34 77 -74 c208 -198 449 -334 747 -422 111
-32 265 -67 360 -80 253 -36 336 -41 650 -41 263 0 426 9 575 30 25 4 56 8 70
10 176 23 453 103 608 175 352 165 636 461 772 805 77 194 127 393 156 620 3
28 8 64 11 80 2 17 7 222 10 458 l5 427 -783 0 -784 0 1 -408 c0 -224 -3 -443
-7 -487 -30 -315 -61 -420 -159 -544 -91 -115 -230 -165 -465 -165 -254 0
-403 48 -510 167 -91 100 -146 232 -170 407 -17 121 -20 411 -20 1915 0 1506
3 1826 19 1911 2 10 7 44 11 74 11 83 50 198 90 265 104 174 271 255 530 258
268 3 400 -36 506 -150 84 -89 132 -194 149 -326 5 -39 12 -90 15 -112 5 -31
15 -650 15 -916 l0 -44 781 0 781 0 -5 425 c-3 234 -8 441 -11 460 -3 19 -8
59 -12 88 -3 29 -7 63 -10 75 -3 12 -9 47 -15 77 -31 164 -98 368 -173 524
-43 90 -132 230 -173 274 -10 11 -36 39 -58 62 -160 172 -408 325 -663 410
-113 38 -250 74 -322 85 -19 3 -46 8 -60 10 -56 12 -71 14 -161 24 -52 6 -119
13 -149 17 -57 6 -655 15 -661 10z m-2056 -4437 c4 -597 2 -637 -32 -769 -52
-202 -171 -371 -312 -442 -156 -79 -407 -85 -549 -13 -88 45 -166 165 -195
303 -16 73 -13 265 4 337 6 22 10 42 11 45 29 155 122 316 285 489 42 45 182
183 219 216 76 69 558 437 563 431 2 -2 5 -270 6 -597z"/>
</g>
</svg>
